# xmcd CD database file
#
# Track frame offsets:
#	150
#	14798
#	35898
#	51177
#	64107
#	81982
#	95333
#	113200
#	135199
#	149989
#	165129
#	188612
#
# Disc length: 2744 seconds
#
# Revision: 0
# Processed by: cddbd v1.5.2PL0 Copyright (c) Steve Scherf et al.
# Submitted via: CDex 1.51
#
DISCID=a60ab60c
DTITLE=Jane Duboc - Glow
DYEAR=2005
DGENRE=Jazz
TTITLE0=Life is Still Around
TTITLE1=If I Ever Lose My Faith
TTITLE2=Spend the Night
TTITLE3=Games
TTITLE4=Yellow
TTITLE5=Children
TTITLE6=Tears in Heaven
TTITLE7=Flame of Love
TTITLE8=From the Inside
TTITLE9=Foreign Forest
TTITLE10=Mercy Street
TTITLE11=Glow
EXTD=YEAR: 2005
EXTT0=
EXTT1=
EXTT2=
EXTT3=
EXTT4=
EXTT5=
EXTT6=
EXTT7=
EXTT8=
EXTT9=
EXTT10=
EXTT11=
PLAYORDER=
